<svg version="1.0" xmlns="http://www.w3.org/2000/svg" width="64" height="64" xml:space="preserve"><path fill="#ffbe00" d="M49.304 63.999c-.664 0-1.332-.164-1.938-.5l-15.367-8.498-15.366 8.498c-1.344.742-2.993.652-4.243-.23-1.25-.883-1.891-2.403-1.645-3.915l2.981-18.262L1.137 28.183C.09 27.109-.27 25.542.207 24.12a4.0017 4.0017 0 0 1 3.188-2.684l17.238-2.634 7.743-16.496A3.9989 3.9989 0 0 1 31.998.005c1.552 0 2.962.895 3.622 2.301l7.744 16.496 17.237 2.634a4.0003 4.0003 0 0 1 3.188 2.684 3.9971 3.9971 0 0 1-.93 4.063L50.272 41.092l2.981 18.262c.246 1.512-.395 3.032-1.646 3.915a3.998 3.998 0 0 1-2.303.73zm-17.305-17.57c.668 0 1.332.168 1.938.5l10.092 5.579-1.981-12.119a4.002 4.002 0 0 1 1.087-3.438l8.563-8.779-11.654-1.782a3.9923 3.9923 0 0 1-3.017-2.255l-5.028-10.713-5.028 10.713a3.9873 3.9873 0 0 1-3.017 2.255L12.3 28.171l8.564 8.779c.887.91 1.289 2.184 1.086 3.438l-1.98 12.119 10.092-5.579c.605-.331 1.269-.499 1.937-.499z"/></svg>